# xmcd
#
# Track frame offsets:
# 150
# 16885
# 33077
# 54912
# 70510
# 89619
# 108764
# 125793
# 145815
# 164574
# 180440
# 198445
# 218190
#
# Disc length: 3130 seconds
#
#
# Revision: 5
# Processed by: cddbd v1.4PL0 Copyright (c) Steve Scherf et al.
# Submitted via: FreeRIP 2.30 
#
DISCID=ad0c380d
DTITLE=Adam Brand - Built For Speed
DYEAR=2001
DGENRE=Country
TTITLE0=New England Highway
TTITLE1=I'm Going To Venus
TTITLE2=The Anzac
TTITLE3=That Was Us
TTITLE4=Dirt Racer
TTITLE5=That's Who We Are
TTITLE6=Built For Speed
TTITLE7=Nothin's Gonna Slow Me Down
TTITLE8=Old Hands
TTITLE9=I Thank The Good Lord
TTITLE10=Smile
TTITLE11=Nah, I Don't Think So
TTITLE12=Stitches
EXTD=YEAR: 2001 ID3G: 2
EXTT0=
EXTT1=
EXTT2=
EXTT3=
EXTT4=
EXTT5=
EXTT6=
EXTT7=
EXTT8=
EXTT9=
EXTT10=
EXTT11=
EXTT12=
PLAYORDER=
